<svg fill="none" xmlns="http://www.w3.org/2000/svg" viewBox="0 0 549 414"><path opacity=".18" d="M146.061 25.592c-32.32 22.792-58.567 56.906-63.568 96.183-1.217 9.825-1.217 19.809-3.091 29.524-7.082 35.88-39.986 62.641-46.24 98.618-5.683 32.373 11.39 64.114 29.63 91.459 8.007 11.992 16.585 23.985 28.292 32.386 11.146 7.999 24.47 12.272 37.552 16.424 55.038 17.459 115.077 34.893 169.227 14.841 14.42-5.345 27.988-13.246 43.077-16.266 20.492-4.091 41.555 1.218 62.436 2.033 30.154 1.12 61.245-8.035 83.61-28.282 22.366-20.247 34.656-52.158 28.329-81.658-3.298-15.268-11.183-29.147-15.819-44.086a105.969 105.969 0 0 1-3.967-42.954c1.375-12.004 4.806-23.936 3.65-35.94-1.716-17.204-12.692-32.081-25.006-44.208-12.315-12.126-26.406-22.536-37.138-36.075-11.22-14.135-17.377-31.91-29.205-45.57-41.628-48.226-87.358-17.594-119.75-18.41-14.676-.401-111.719-9.374-142.019 11.98Z" fill="#400E3F"/><path d="M372.432 89.754H180.449c-29.214 0-52.896 23.696-52.896 52.925v131.284c0 29.229 23.682 52.925 52.896 52.925h191.983c29.214 0 52.897-23.696 52.897-52.925V142.679c0-29.229-23.683-52.925-52.897-52.925Z" fill="url(#a)"/><path d="M172.212 328.848a4.139 4.139 0 0 0 1.083 2.763 4.079 4.079 0 0 0 2.433.658c14.043.812 28.098.954 42.164.426a7.37 7.37 0 0 0 4.454-1.217 7.052 7.052 0 0 0 1.874-3.081 66.837 66.837 0 0 0 3.237-11.566c.328-1.741.523-3.726-.584-5.101-1.108-1.376-3.225-1.62-5.062-1.693a885.638 885.638 0 0 0-41.775-.572c-3.383 0-8.81.268-9.735 4.2-.925 3.933 1.412 11.104 1.911 15.183ZM318.112 326.985a14.942 14.942 0 0 0 6.875 2.204 201.641 201.641 0 0 0 41.446 1.473c1.643-.11 3.468-.341 4.491-1.632 1.216-1.558.632-3.835-.086-5.697-1.618-4.213-3.918-8.681-8.104-10.337a17.967 17.967 0 0 0-6.449-.864c-9.735-.122-20.906-2.107-30.531-1.096-7.52.791-14.894 9.728-7.642 15.949ZM316.481 86.528a3.515 3.515 0 0 0 2.543.645l20.31-.194c8.092-.086 16.257-.17 24.178-1.839 1.473-.304 3.152-.876 3.59-2.313a4.236 4.236 0 0 0-.341-2.666 50.285 50.285 0 0 0-8.931-15.183 3.655 3.655 0 0 0-3.554-1.595c-9.978 0-18.8 5.357-27.829 8.852-3.748 1.448-15.977 8.461-9.966 14.293ZM173.745 86.26a3.155 3.155 0 0 0 0 2.24c.511.962 1.801 1.218 2.884 1.218a631.515 631.515 0 0 0 56.401 1.132 6.082 6.082 0 0 0 3.334-.73c1.46-.974 1.801-2.947 1.886-4.7a38.032 38.032 0 0 0-3.651-18.263 10.724 10.724 0 0 0-2.835-3.98c-2.081-1.644-4.928-1.803-7.581-1.9l-21.112-.706c-4.162-.146-10.088-1.522-14.189-.28-9.808 3.031-11.304 18.238-15.137 25.97Z" fill="#3E3E54"/><path d="M177.456 28.697a19.18 19.18 0 0 0-4.685 16.899 24.74 24.74 0 0 0 5.244 10.227c6.085 7.402 14.968 12.101 24.338 14.098 9.369 1.997 19.068 1.412 28.437-.45 5.233-1.047 10.502-2.545 14.882-5.6a11.904 11.904 0 0 0 4.868-5.979c.839-2.703.17-5.649-.755-8.327-2.981-8.633-8.956-16.522-17.279-20.247a45.637 45.637 0 0 0-12.984-3.154c-7.97-1.023-16.89 0-24.592-2.094-6.535-1.814-12.595-.56-17.474 4.627ZM366.263 81.524H174.28c-29.214 0-52.896 23.695-52.896 52.925v131.283c0 29.23 23.682 52.925 52.896 52.925h191.983c29.214 0 52.897-23.695 52.897-52.925V134.449c0-29.23-23.683-52.925-52.897-52.925Z" fill="#400E3F"/><path d="M366.263 81.524H174.28c-29.214 0-52.896 23.695-52.896 52.925v131.283c0 29.23 23.682 52.925 52.896 52.925h191.983c29.214 0 52.897-23.695 52.897-52.925V134.449c0-29.23-23.683-52.925-52.897-52.925Z" fill="url(#b)"/><path d="m321.921 110.416-12.911 66.5 48.613 9.886s11.779-64.991 11.779-66.123c0-1.132-47.481-10.263-47.481-10.263Z" fill="#fff"/><path d="M359.412 94.783a15.24 15.24 0 0 0-4.758-.098c-.973.275-1.919.642-2.823 1.096-5.123 2.216-10.951 2.167-16.476 2.07.402-1.766 2.166-2.813 3.748-3.653 4.466-2.435 9.212-5.856 9.978-10.957a5.12 5.12 0 0 0-3.93-1.096h-25.445a3.646 3.646 0 0 0-2.226.487 2.946 2.946 0 0 0-.974 1.741 12.184 12.184 0 0 0 1.399 7.975c1.217 2.435 2.726 4.748 3.651 7.305.925 2.556 1.278 5.186 2.762 7.366 1.339 1.948 3.541 3.396 4.138 5.673-1.704 1.656-4.552.645-6.547-.633a36.875 36.875 0 0 1-16.464-26.493 2.848 2.848 0 0 1 .645-2.642c.425-.267.91-.422 1.411-.45a292.014 292.014 0 0 1 36.591-2.642c9.123-.24 18.248.408 27.245 1.936 2.434.462 10.952 1.217 9.857 4.236-.974 2.837-6.632 5.613-9.139 6.721a25.456 25.456 0 0 1-12.643 2.058Z" fill="url(#c)"/><path d="M322.578 314.372a5.563 5.563 0 0 1 2.239-.341 7.924 7.924 0 0 0 4.161-.816 6.077 6.077 0 0 1 1.972-1.144c.403-.06.813-.06 1.217 0a7.857 7.857 0 0 0 4.429-.853c.645-.328 1.314-.901 1.217-1.619a1.61 1.61 0 0 0-.365-.816c-1.144-1.485-3.298-1.655-5.172-1.692l-7.033-.158a16.084 16.084 0 0 0-5.452.487 8.17 8.17 0 0 0-5.464 9.411c.035.3.163.581.366.804.223.179.493.289.778.316 1.217.256 3.651 1.218 4.624.061.974-1.157.828-2.861 2.483-3.64Z" fill="url(#d)"/><path d="M351.393 300.358a9.126 9.126 0 0 0-3.87-2.35 13.827 13.827 0 0 0-4.952 0 63.335 63.335 0 0 1-18.874-.791 1.91 1.91 0 0 1-1.217-.548 1.882 1.882 0 0 1-.219-1.315c.329-3.835 1.692-8.267 5.354-9.46a10.728 10.728 0 0 1 3.298-.353c7.143 0 14.663.597 20.687 4.505 5.39 3.518 8.834 9.253 12.107 14.792 2.702 4.578 5.513 9.631 4.746 14.903-3.651-.183-8.591.401-12.047-.755.487-3.494.949-6.611 0-10.13-.949-3.518-3.492-5.454-5.013-8.498Z" fill="url(#e)"/><path d="M217.856 311.145c-.913-.548-1.984-1.059-2.434-2.045-.888-2.119 1.899-4.334 1.327-6.562a47.007 47.007 0 0 1-4.868-2.095 3.033 3.033 0 0 1-1.131-.815c-.706-.926-.207-2.216.206-3.3.414-1.083.597-2.556-.389-3.165a2.736 2.736 0 0 0-1.85-.146l-10.282 1.57a9.038 9.038 0 0 0-3.286.938 3.103 3.103 0 0 0-1.654 2.8l2.494 2.545c-1.351 2.276-4.636 2.581-6.401 4.565-1.411 1.607-1.533 3.933-1.776 6.088-.244 2.155-.864 4.517-2.762 5.515a7.042 7.042 0 0 1-3.189.584l-10.391.354a3.754 3.754 0 0 1-2.337-.451c-1.387-1.01-.718-3.202.098-4.724a41.824 41.824 0 0 0 3.005-6.221c2.616-7.537.244-16.205 3.237-23.596a7.64 7.64 0 0 1 2.215-3.25 9.718 9.718 0 0 1 5.536-1.461 939.679 939.679 0 0 1 24.848-1.084 67.672 67.672 0 0 1 10.952.292c3.809.512 7.824 1.863 9.942 5.065a16.31 16.31 0 0 1 1.63 3.567l3.578 9.74 3.857 10.556c1.059 2.874 2.057 6.258.39 8.827-1.497 2.313-4.588 2.959-7.301 2.983-2.142 0-6.766.877-8.092-.341-.755-.706-1.217-2.727-1.862-3.652a11.758 11.758 0 0 0-3.31-3.081Z" fill="url(#f)"/><path d="m231.85 87.027 6.644 16.144a36.957 36.957 0 0 1 2.981 9.667c.401 3.458-.183 6.952.061 10.41.401 5.564 2.908 10.726 5.366 15.73 3.054-1.315 4.21-5.016 4.648-8.316 1.01-7.645.086-15.413-1.058-23.035a53.255 53.255 0 0 0-3.529-14.062 47.986 47.986 0 0 0-3.979-6.854 13.672 13.672 0 0 0-4.138-4.444c-1.91-1.108-6.607-2.107-8.724-1.218-2.544 1.193 1.034 4.31 1.728 5.978Z" fill="url(#g)"/><path d="M181.302 101.211a8.647 8.647 0 0 0-.986-3.847 53.94 53.94 0 0 1-1.935-5.394 3.63 3.63 0 0 1-.194-1.01c.026-.49.133-.97.316-1.425.538-1.736.605-3.585.195-5.357a3.065 3.065 0 0 0-1.582-2.325 3.506 3.506 0 0 0-1.217-.183l-4.953-.158a.998.998 0 0 0-.657.146.912.912 0 0 0-.231.657 60.284 60.284 0 0 0 .304 12.176c.475 3.652 2.434 6.939 4.466 10.044 2.336 3.64 6.23-.012 6.474-3.324Z" fill="url(#h)"/><path d="M238.748 259.474h-64.505v33.664h64.505v-33.664Z" fill="#400E3F"/><path d="M238.748 259.474h-64.505v33.664h64.505v-33.664Z" fill="url(#i)"/><path d="M213.511 281.56h-15.308v9.253h15.308v-9.253Z" fill="url(#j)"/><path d="m238.748 259.474-64.785-.292-5.293-19.09h78.049l-7.971 19.382Z" fill="#400E3F"/><path d="m238.748 259.474-64.785-.292-5.293-19.09h78.049l-7.971 19.382Z" fill="#400E3F"/><path d="m235.671 258.099-58.823-.232-4.235-15.267h69.434l-6.376 15.499Z" fill="url(#k)"/><path d="M387.789 75.644a14.467 14.467 0 0 1-4.868 7.158 51.6 51.6 0 0 1-11.608 7.305c-3.992 1.948-8.348 3.763-12.717 3.069-4.368-.695-8.518-4.87-7.386-9.23.998-3.932 5.379-5.77 9.054-7.499a49.761 49.761 0 0 0 6.996-4.006 6.334 6.334 0 0 0 2.434-2.435c.791-1.79-.073-3.86-1.034-5.564a47.246 47.246 0 0 0-7.849-10.373c-1.789 3.008-1.326 6.891-2.786 10.081-2.033 4.444-7.302 6.477-12.169 6.782-2.531.158-5.22 0-7.398 1.315a22.694 22.694 0 0 0-2.617 2.094 14.388 14.388 0 0 1-18.812-1.096c-2.434 3.214-5.014 6.806-4.868 10.848.183 1.77.656 3.497 1.4 5.113a80.941 80.941 0 0 0 4.271 8.925 28.472 28.472 0 0 1 3.31 7.146 7.763 7.763 0 0 1-1.692 7.306 3.293 3.293 0 0 1-1.606.913c-1.326.243-2.567-.682-3.65-1.547a79.56 79.56 0 0 1-11.585-11.079 26.794 26.794 0 0 1-6.182-14.61c-.219-3.385.439-6.77.451-10.154 0-3.823-.767-7.634-.536-11.444.365-6.088 3.383-11.859 7.447-16.437a57.188 57.188 0 0 1 11.719-9.654c.474-.305 1.715-1.218 3.516-2.435-1.509 2.568-1.143 6.087-.073 9.593a13.755 13.755 0 0 0 7.022 8.45 7.22 7.22 0 0 1 1.934 1.096c.438.39.755.925 1.217 1.315 1.521 1.217 4.162.608 5.452 2.118.45.511.681 1.218 1.29 1.57.608.354 1.496 0 2.251 0 1.233.141 2.432.5 3.541 1.06a8.258 8.258 0 0 0 8.116-2.435 17.406 17.406 0 0 0 3.992-7.877c1.216-4.554 1.557-9.655-.779-13.746a15.157 15.157 0 0 0-7.63-6.684c-9.954-3.726-20.784 1.984-26.32 5.54a6.867 6.867 0 0 1 2.324-2.338 76.249 76.249 0 0 1 13.385-5.917c7.922-2.74 15.174-.414 23.498.584 2.333.174 4.607.825 6.68 1.912a18.664 18.664 0 0 1 5.147 5.15 118.333 118.333 0 0 1 16.343 30.194c1.156 3.202 2.19 6.635 1.375 9.922ZM185.378 369.939c4.989 2.24 10.696 1.96 16.159 1.57 5.172-.365 10.623-.901 14.858-3.908 6.279-4.456 8.056-13.076 7.557-20.698a47.31 47.31 0 0 0-9.163-25.287 10.31 10.31 0 0 0-3.261-3.105 11.4 11.4 0 0 0-5.403-.852c-6.239.049-12.473.296-18.703.743a7.692 7.692 0 0 0-3.906 1.01 7.065 7.065 0 0 0-2.276 3.446 36.779 36.779 0 0 0-2.433 14.062c.17 6.927 1.849 13.392-.305 20.113-1.728 5.406 1.692 10.568 6.876 12.906Z" fill="#400E3F"/><path d="M185.378 369.939c4.989 2.24 10.696 1.96 16.159 1.57 5.172-.365 10.623-.901 14.858-3.908 6.279-4.456 8.056-13.076 7.557-20.698a47.31 47.31 0 0 0-9.163-25.287 10.31 10.31 0 0 0-3.261-3.105 11.4 11.4 0 0 0-5.403-.852c-6.239.049-12.473.296-18.703.743a7.692 7.692 0 0 0-3.906 1.01 7.065 7.065 0 0 0-2.276 3.446 36.779 36.779 0 0 0-2.433 14.062c.17 6.927 1.849 13.392-.305 20.113-1.728 5.406 1.692 10.568 6.876 12.906Z" fill="url(#l)"/><path d="M205.529 54.203a14.521 14.521 0 0 0 16.963-7.073 10.664 10.664 0 0 0 1.217-5.942 10.565 10.565 0 0 0-6.985-8.242 17.357 17.357 0 0 0-11.159.182c-2.616.84-6.79 2.228-8.761 4.225-1.436 1.461-1.022 3.945-.657 5.844a14.609 14.609 0 0 0 9.382 11.006Z" fill="url(#m)"/><path d="M190.561 34.03a13.876 13.876 0 0 0 .67 5.247 11.132 11.132 0 0 0 2.823 3.822c3.03 2.862 7.386 4.956 11.341 3.653a12.445 12.445 0 0 0 3.577-2.13c.184-.189.423-.313.682-.354.269.011.528.105.742.268a12.492 12.492 0 0 0 14.249-1.217 13.383 13.383 0 0 0 4.454-9.667 16.227 16.227 0 0 0-3.419-10.19 29.517 29.517 0 0 0-3.979-4.165 26.988 26.988 0 0 0-5.367-3.871 17.254 17.254 0 0 0-14.967-.256 18.614 18.614 0 0 0-8.275 7.78 25.989 25.989 0 0 0-2.19 4.249c-.645 1.997-.316 4.7-.341 6.83Z" fill="#3E3E54"/><path d="M205.164 15.219a3.943 3.943 0 0 0 2.58 1.071c1.465.185 2.941.266 4.417.244.476.013.95-.061 1.4-.22a4.062 4.062 0 0 0 1.654-1.813c.175-.257.295-.547.353-.853a1.677 1.677 0 0 0-.158-.876 3.972 3.972 0 0 0-2.993-2.094 12.288 12.288 0 0 0-3.773.133c-1.01.134-3.358-.255-4.015.548-.657.804 0 3.215.535 3.86Z" fill="#400E3F"/><path d="M204.495 11.542c1.268.316 2.577.44 3.881.365h3.14a7.299 7.299 0 0 0 2.312-.268 5.053 5.053 0 0 0 2.434-1.923 8.85 8.85 0 0 0 1.655-4.237 2.926 2.926 0 0 0-.195-1.62 3.314 3.314 0 0 0-.913-.973 12.837 12.837 0 0 0-4.113-2.57 10.142 10.142 0 0 0-6.169.439 9.267 9.267 0 0 0-4.782 3.044 5.14 5.14 0 0 0-.551 4.556 5.141 5.141 0 0 0 3.301 3.187Z" fill="#3E3E54"/><path d="M179.257 59.11c-2.434 3.105-5.269 6.087-6.182 9.971a22.24 22.24 0 0 0-.243 6.55l.924 14.757a4.801 4.801 0 0 1-.389 2.812c-.767 1.218-2.434 1.534-3.894 1.68-2.204.392-4.469.271-6.62-.353-4.526-1.692-6.157-7.159-7.021-11.92-1.217-6.988-2.202-14.28-.255-21.11 1.776-6.283 5.816-11.64 9.734-16.839 3.201-4.188 6.535-8.522 11.135-11.08a4.985 4.985 0 0 1 2.239-.742 4.462 4.462 0 0 1 2.36.852c10.721 6.782 4.052 17.959-1.788 25.422ZM250.041 63.615l3.553 24.678c.694 4.87 1.387 9.606 1.923 14.428.47 4.399.819 8.806 1.046 13.222.098 1.899.061 4.066-1.362 5.32-1.655 1.449-4.405.78-5.914-.815a13.524 13.524 0 0 1-2.702-5.954 185.79 185.79 0 0 0-10.903-29.317c-2.141-4.554-4.49-9.083-5.536-14.002-1.692-7.865.912-15.693 8.396-19.48 8.956-4.395 10.526 4.955 11.499 11.92Z" fill="#400E3F"/><path d="M257.586 116.759a6.298 6.298 0 0 0-3.249-2.326 5.047 5.047 0 0 0-3.712.938 9.515 9.515 0 0 0-4.21 8.023c0 1.705.56 3.36.754 5.053.256 2.155 0 4.371.609 6.465a8.521 8.521 0 0 0 7.642 5.99 4.099 4.099 0 0 0 2.056-.365c1.594-.828 1.971-2.91 2.008-4.712a33.212 33.212 0 0 0-.718-7.67 13.098 13.098 0 0 0 4.259 1.607c.146-4.992-2.263-9.29-5.439-13.003Z" fill="url(#n)"/><path d="M170.812 104.961a8.122 8.122 0 0 0 3.796 1.79 3.348 3.348 0 0 0 3.529-1.79 5.185 5.185 0 0 0 .243-1.936v-5.393a9.405 9.405 0 0 0-1.216-5.552 5.784 5.784 0 0 0-4.868-2.143c-2.811.146-8.518 2.849-8.712 6.088-.195 3.238 4.94 7.28 7.228 8.936Z" fill="url(#o)"/><path d="M331.96 66.926c3.067-.073 5.926-1.485 8.652-2.885a11.75 11.75 0 0 0 3.212-2.13 7.082 7.082 0 0 0 1.595-6.087 11.452 11.452 0 0 0-3.128-5.687 14.598 14.598 0 0 0-18.119-2.703c-4.867 2.776-4.04 11.043-1.131 14.963a11.08 11.08 0 0 0 8.919 4.53Z" fill="url(#p)"/><path d="M353.778 51.062a17.395 17.395 0 0 1-3.991 7.877 8.26 8.26 0 0 1-8.116 2.435 10.503 10.503 0 0 0-3.541-1.059c-.755 0-1.582.353-2.252 0-.669-.353-.839-1.06-1.289-1.57-1.29-1.51-3.931-.84-5.452-2.119-.45-.39-.767-.925-1.217-1.315a7.211 7.211 0 0 0-1.935-1.096 13.74 13.74 0 0 1-7.021-8.449c-1.071-3.555-1.436-7.025.073-9.594 5.537-3.555 16.367-9.265 26.321-5.54a15.15 15.15 0 0 1 7.629 6.684c2.349 4.091 2.008 9.193.791 13.746Z" fill="#3E3E54"/><path d="M325.924 111.511c2.264 2.435 4.685 5.175 4.466 8.45a10.206 10.206 0 0 0-.121 2.715c.194.889 1.119 1.716 1.959 1.363.839-.353 1.083-1.729 2.02-1.875.742-.121 1.326.743 1.217 1.486a3.506 3.506 0 0 1-1.132 1.887 42.74 42.74 0 0 1-2.823 2.727 3.93 3.93 0 0 1-1.85 1.084 4.005 4.005 0 0 1-2.154-.487c-2.835-1.218-6.084-2.861-6.631-5.893a23.213 23.213 0 0 1-.171-2.764c-.268-3.786-7.082-10.507-5.098-13.855 2.823-4.675 8.688 3.458 10.318 5.162Z" fill="url(#q)"/><path d="M320.363 113.289a2.058 2.058 0 0 0 .438 1.863c.45.488.976.899 1.558 1.217l8.725 5.54c1.289.828 2.19-.731 1.496-1.839-.499-.791-1.959-1.059-2.738-1.485-3.176-1.717-6.279-3.58-9.479-5.296Z" fill="#3E3E54"/><path d="M339.601 84.373c-.803 0-1.764.073-2.178.767a1.493 1.493 0 0 0 .341 1.753 3.064 3.064 0 0 0 1.728.755c.316 0 .681.098.852.365a.92.92 0 0 1 .085.439 2.68 2.68 0 0 1-2.276 2.216c-1.107.255-2.275.121-3.395.292a12.475 12.475 0 0 0-3.37 1.217 4.53 4.53 0 0 0-2.507 2.143 2.973 2.973 0 0 0 1.448 3.324 7.894 7.894 0 0 0 3.784.864 48.147 48.147 0 0 0 8.518-.45 13.373 13.373 0 0 0 3.59-.901 15.093 15.093 0 0 0 2.434-1.376l4.526-2.946c4.211-2.74 1.497-6.307-2.263-7.914-3.285-1.34-7.909-.524-11.317-.548Z" fill="url(#r)"/><path d="M221.664 93.59h-40.74v53.862h40.74V93.59ZM323.202 297.352l40.64-2.858-3.774-53.73-40.64 2.858 3.774 53.73Z" fill="#fff"/><path d="M172.807 375.636c-2.835-1.217-5.743-2.617-7.69-5.016a20.454 20.454 0 0 1-2.848-5.576l-8.518-22.098a56.413 56.413 0 0 1-2.579-7.852 53.823 53.823 0 0 1-.937-8.279 21.611 21.611 0 0 1 .389-7.464c.864-2.995 2.945-5.454 5.013-7.767a561.506 561.506 0 0 1 7.302-7.792 29.06 29.06 0 0 1 6.291-5.37 15.048 15.048 0 0 1 7.033-1.996 4.479 4.479 0 0 1 1.667.194c.507.221.975.521 1.387.889a75.186 75.186 0 0 1 5.72 5.223c1.01 1.023 2.068 2.374 1.679 3.762-.499 1.839-2.896 2.131-4.685 2.752-4.588 1.607-6.547 6.915-9.978 10.373-1.217 1.218-2.702 2.301-3.407 3.896-.706 1.595-.086 3.933 1.63 4.213a9.229 9.229 0 0 1 4.77-6.587 14.642 14.642 0 0 1 4.868-1.351c2.097-.28 4.213-.39 6.327-.329.375-.023.747.066 1.071.255.342.295.57.7.645 1.145a88.464 88.464 0 0 1 3.59 18.969c.207 4.564.158 9.137-.146 13.697l-.743 14.67c-.158 3.422.852 10.276-3.65 10.958-4.673.791-10.039-1.692-14.201-3.519ZM213.11 348.681a52.338 52.338 0 0 0-.657-7.926c-1.399-7.5-6.084-14.026-7.995-21.404a1.438 1.438 0 0 1-.118-.718c.024-.245.111-.48.252-.682a1.435 1.435 0 0 1 1.034-.28c4.779 0 9.561.13 14.347.39.452.002.9.08 1.327.231 1.533.609 1.8 2.593 2.08 4.225a34.106 34.106 0 0 0 4.052 10.056c1.814-2.666 3.651-5.661 3.286-8.851a12.365 12.365 0 0 0-2.13-4.87 78.917 78.917 0 0 0-9.321-11.944 2.98 2.98 0 0 1-.973-1.595 2.945 2.945 0 0 1 1.132-2.203 113.702 113.702 0 0 1 9.552-8.742 1.699 1.699 0 0 1 1.217-.524c.416.118.77.393.985.768a351.682 351.682 0 0 1 13.958 19.577c2.884 4.346 5.743 9.034 5.962 14.233a29.003 29.003 0 0 1-1.679 9.46 358.137 358.137 0 0 1-8.64 25.385 29.409 29.409 0 0 1-4.964 9.301c-4.259 4.785-11.317 6.404-17.487 5.552-6.777-.925-4.611-10.568-4.77-15.645l-.45-13.794Z" fill="#400E3F"/><path d="M195.612 289.936a3.22 3.22 0 0 1 1.521.828c.961 1.084.292 2.825-.633 3.945a11.802 11.802 0 0 1-4.794 3.494c-1.339.524-2.921.926-3.554 2.216 1.285.34 2.622.439 3.943.292.231.658-.377 1.315-.986 1.668a8.006 8.006 0 0 1-7.714-.194c-1.741-.938-4.381-2.959-4.698-5.065-.316-2.107 2.069-3.981 3.651-5.053a15.811 15.811 0 0 1 13.264-2.131Z" fill="url(#s)"/><path d="M220.082 286.199a13.703 13.703 0 0 0-11.462-5.443c-1.777.086-3.919.95-4.004 2.728.051.863.38 1.688.937 2.349a43.853 43.853 0 0 0 4.515 5.564c.998 1.047 2.154 2.435 1.569 3.799-.584 1.364-2.664 1.668-3.078 3.092a.687.687 0 0 0 0 .439.767.767 0 0 0 .511.389c2.567.901 5.488-.401 8.08.414.815.256 1.557.719 2.433.987 2.836.913 7.606-1.462 6.316-4.931-.596-1.583-2.057-2.983-2.884-4.481a43.482 43.482 0 0 0-2.933-4.906Z" fill="url(#t)"/><path d="M297.741 334.448c-2.823-7.305-2.433-15.535-1.375-23.327a11.338 11.338 0 0 1 1.217-4.371 10.013 10.013 0 0 1 5.026-3.774c7.958-3.226 16.89-2.666 25.432-1.802a2.68 2.68 0 0 1 1.436.426c.388.384.651.877.754 1.412.877 2.959 1.473 6.782-1.046 8.523-2.872 2.033-7.557-.487-10.1 1.936a5.248 5.248 0 0 0-1.217 4.529c.219 1.595.791 3.141.937 4.748a11.119 11.119 0 0 1-4.076 9.083 20.61 20.61 0 0 1-9.334 4.188 11.65 11.65 0 0 1-6.802-.195c-2.129-.889-3.808-3.214-3.261-5.454" fill="#400E3F"/><path d="M341.196 302.55a6.851 6.851 0 0 1 3.03 2.325 3.145 3.145 0 0 1 0 3.653 4.158 4.158 0 0 1-2.032 1.217c-2.273.728-4.67.989-7.046.767.182.792.109 1.973-.706 2.009a1.449 1.449 0 0 1-.669-.219c-2.434-1.278-12.4-5.016-7.557-9.131 3.675-3.239 10.94-2.46 14.98-.621Z" fill="url(#u)"/><path d="M362.551 316.125a36.539 36.539 0 0 0-3.212-9.083c-2.519-4.456-6.754-7.633-10.125-11.493a2.881 2.881 0 0 1-.961-2.338c.152-.459.41-.877.755-1.217l2.677-3.08a3.85 3.85 0 0 1 2.093-1.522 3.653 3.653 0 0 1 1.715.243c10.295 3.275 18.643 11.433 23.498 21.087 4.855 9.655 6.413 20.698 5.95 31.534a21.122 21.122 0 0 1-1.448 7.743 8.449 8.449 0 0 1-5.719 5.016 2.916 2.916 0 0 1-2.263-.328 3.766 3.766 0 0 1-1.071-1.547 200.502 200.502 0 0 1-11.889-35.015Z" fill="#400E3F"/><path d="M371.848 358.981a19.15 19.15 0 0 0 3.492-17.179 24.742 24.742 0 0 0-5.938-9.825c-6.546-6.952-15.819-11.019-25.249-12.358-9.431-1.339-19.117-.073-28.329 2.435-5.159 1.4-10.307 3.263-14.468 6.623a11.968 11.968 0 0 0-4.442 6.307c-.645 2.764.219 5.649 1.339 8.255 3.577 8.4 10.088 15.827 18.654 18.981 4.26 1.386 8.7 2.14 13.179 2.24 8.019.462 16.841-1.218 24.665.365 6.632 1.339 12.595-.341 17.097-5.844Z" fill="#400E3F"/><path d="M350.067 283.739a22.16 22.16 0 0 0-10.879-1.071 6.55 6.55 0 0 0-2.896.925 2.712 2.712 0 0 0-1.217 2.618 3.458 3.458 0 0 0 1.886 2.106 9.934 9.934 0 0 1 2.434 1.546 2.07 2.07 0 0 1 .389 2.642c-.474.597-1.46.877-1.521 1.656-.061.779 1.071 1.218 1.923 1.218 2.92 0 5.792-.78 8.712-.731 1.887 0 3.773.426 5.671.329a3.657 3.657 0 0 0 1.643-.402c2.105-1.217 2.02-4.383.718-6.014a16.163 16.163 0 0 0-6.863-4.822Z" fill="url(#v)"/><path d="M189.551 353.721a14.077 14.077 0 0 1 7.472-6.83 13.765 13.765 0 0 1 7.995 0 36.21 36.21 0 0 1 7.398 3.275 8.84 8.84 0 0 1 2.324 1.62 9.177 9.177 0 0 1 1.327 2.106l1.655 3.238a24.044 24.044 0 0 1 2.433 6.088 19.75 19.75 0 0 1 .134 5.552 28.446 28.446 0 0 1-2.166 9.448 13.705 13.705 0 0 1-6.559 6.915 17.7 17.7 0 0 1-9.126.925 20.921 20.921 0 0 1-5.987-1.375 16.056 16.056 0 0 1-8.311-9.034 26.651 26.651 0 0 1 1.411-21.928Z" fill="url(#w)"/><path d="M188.469 364.825a3.239 3.239 0 0 0 .146 3.202c.324.39.583.83.767 1.303.121.487-.195 1.132-.706 1.083-.511-.048-.633-.499-.974-.73a1.323 1.323 0 0 0-1.691.402 3.302 3.302 0 0 0-.572 1.801 17.307 17.307 0 0 0 7.435 15.268 21.894 21.894 0 0 0 17.036 3.141 13.842 13.842 0 0 0 7.216-3.567c3.346-3.458 3.577-8.791 3.577-13.6 0-1.668-.061-3.494-1.217-4.724a4.872 4.872 0 0 0-4.344-1.217 28.003 28.003 0 0 0-4.514 1.315 36.086 36.086 0 0 1-10.295 1.217 17.343 17.343 0 0 1-5.269-.487c-2.677-.864-4.04-3.323-6.595-4.407Z" fill="#3E3E54"/><path d="M342.059 335.508a14.519 14.519 0 0 0-9.679 1.187 14.535 14.535 0 0 0-6.748 7.043 10.664 10.664 0 0 0-.779 6.014 10.549 10.549 0 0 0 2.707 4.906c1.328 1.361 3 2.338 4.838 2.825 3.707.92 7.615.582 11.109-.961 2.556-1.023 6.62-2.691 8.445-4.87 1.339-1.571.743-4.006.244-5.881a14.61 14.61 0 0 0-10.137-10.263Z" fill="url(#x)"/><path d="M324.78 366.14a27.208 27.208 0 0 0 18.496 4.212 20.396 20.396 0 0 0 15.162-10.835 35.41 35.41 0 0 0 2.434-8.292c.718-2.705.957-5.515.706-8.303a8.141 8.141 0 0 0-4.6-6.514c-2.604-1.01-6.084.402-6.632 3.142-.547 2.739 1.606 5.953-.292 7.913-1.363 1.413-3.65.853-5.585.475a19.239 19.239 0 0 0-18.107 6.55 20.736 20.736 0 0 1-1.85-4.261 10.64 10.64 0 0 1 .633-5.053c-4.575-1.01-10.672 1.34-10.635 6.684.012 5.735 5.792 11.445 10.27 14.282Z" fill="#3E3E54"/><path d="M233.614 262.482h-55.16v16.448h55.16v-16.448Z" fill="url(#y)"/><defs><linearGradient id="a" x1="570.292" y1="165.252" x2="-75.201" y2="259.765" gradientUnits="userSpaceOnUse"><stop stop-opacity="0"/><stop offset=".99"/></linearGradient><linearGradient id="b" x1="401.552" y1="218.019" x2="-57.904" y2="155.347" gradientUnits="userSpaceOnUse"><stop offset=".02" stop-color="#fff" stop-opacity="0"/><stop offset=".32" stop-color="#fff" stop-opacity=".39"/><stop offset=".68" stop-color="#fff" stop-opacity=".68"/><stop offset="1" stop-color="#fff"/></linearGradient><linearGradient id="c" x1="344.445" y1="65.319" x2="340.096" y2="144.627" gradientUnits="userSpaceOnUse"><stop stop-opacity="0"/><stop offset=".99"/></linearGradient><linearGradient id="d" x1="327.044" y1="297.96" x2="324.303" y2="337.261" gradientUnits="userSpaceOnUse"><stop stop-opacity="0"/><stop offset=".99"/></linearGradient><linearGradient id="e" x1="328.784" y1="292.456" x2="413.773" y2="332.648" gradientUnits="userSpaceOnUse"><stop stop-opacity="0"/><stop offset=".99"/></linearGradient><linearGradient id="f" x1="203.85" y1="278.09" x2="204.033" y2="386.07" gradientUnits="userSpaceOnUse"><stop stop-opacity="0"/><stop offset=".99"/></linearGradient><linearGradient id="g" x1="226.167" y1="114.664" x2="271.853" y2="97.55" gradientUnits="userSpaceOnUse"><stop stop-opacity="0"/><stop offset=".99"/></linearGradient><linearGradient id="h" x1="164.485" y1="80.562" x2="202.875" y2="122.485" gradientUnits="userSpaceOnUse"><stop stop-opacity="0"/><stop offset=".99"/></linearGradient><linearGradient id="i" x1="205.09" y1="303.901" x2="208.184" y2="243.233" gradientUnits="userSpaceOnUse"><stop stop-opacity="0"/><stop offset=".99"/></linearGradient><linearGradient id="j" x1="193.847" y1="286.089" x2="218.61" y2="286.296" gradientUnits="userSpaceOnUse"><stop offset=".02" stop-color="#fff" stop-opacity="0"/><stop offset=".32" stop-color="#fff" stop-opacity=".39"/><stop offset=".68" stop-color="#fff" stop-opacity=".68"/><stop offset="1" stop-color="#fff"/></linearGradient><linearGradient id="k" x1="172.613" y1="250.343" x2="242.047" y2="250.343" gradientUnits="userSpaceOnUse"><stop offset=".02" stop-color="#fff" stop-opacity="0"/><stop offset=".32" stop-color="#fff" stop-opacity=".39"/><stop offset=".68" stop-color="#fff" stop-opacity=".68"/><stop offset="1" stop-color="#fff"/></linearGradient><linearGradient id="l" x1="195.855" y1="319.777" x2="199.29" y2="341.948" gradientUnits="userSpaceOnUse"><stop offset=".02" stop-color="#fff" stop-opacity="0"/><stop offset=".32" stop-color="#fff" stop-opacity=".39"/><stop offset=".68" stop-color="#fff" stop-opacity=".68"/><stop offset="1" stop-color="#fff"/></linearGradient><linearGradient id="m" x1="195.782" y1="43.477" x2="223.745" y2="43.477" gradientUnits="userSpaceOnUse"><stop stop-color="#E5C5D5"/><stop offset=".42" stop-color="#EAD4D1"/><stop offset="1" stop-color="#F0E9CB"/></linearGradient><linearGradient id="n" x1="246.427" y1="127.631" x2="263.037" y2="127.631" gradientUnits="userSpaceOnUse"><stop stop-color="#E5C5D5"/><stop offset=".42" stop-color="#EAD4D1"/><stop offset="1" stop-color="#F0E9CB"/></linearGradient><linearGradient id="o" x1="163.474" y1="98.362" x2="178.38" y2="98.362" gradientUnits="userSpaceOnUse"><stop stop-color="#E5C5D5"/><stop offset=".42" stop-color="#EAD4D1"/><stop offset="1" stop-color="#F0E9CB"/></linearGradient><linearGradient id="p" x1="320.704" y1="56.163" x2="345.552" y2="56.163" gradientUnits="userSpaceOnUse"><stop stop-color="#E5C5D5"/><stop offset=".42" stop-color="#EAD4D1"/><stop offset="1" stop-color="#F0E9CB"/></linearGradient><linearGradient id="q" x1="315.265" y1="117.148" x2="335.501" y2="117.148" gradientUnits="userSpaceOnUse"><stop stop-color="#E5C5D5"/><stop offset=".42" stop-color="#EAD4D1"/><stop offset="1" stop-color="#F0E9CB"/></linearGradient><linearGradient id="r" x1="328.759" y1="91.362" x2="355.238" y2="91.362" gradientUnits="userSpaceOnUse"><stop stop-color="#E5C5D5"/><stop offset=".42" stop-color="#EAD4D1"/><stop offset="1" stop-color="#F0E9CB"/></linearGradient><linearGradient id="s" x1="178.661" y1="296.292" x2="197.607" y2="296.292" gradientUnits="userSpaceOnUse"><stop stop-color="#E5C5D5"/><stop offset=".42" stop-color="#EAD4D1"/><stop offset="1" stop-color="#F0E9CB"/></linearGradient><linearGradient id="t" x1="204.616" y1="290.728" x2="226.045" y2="290.728" gradientUnits="userSpaceOnUse"><stop stop-color="#E5C5D5"/><stop offset=".42" stop-color="#EAD4D1"/><stop offset="1" stop-color="#F0E9CB"/></linearGradient><linearGradient id="u" x1="324.878" y1="306.677" x2="344.785" y2="306.677" gradientUnits="userSpaceOnUse"><stop stop-color="#E5C5D5"/><stop offset=".42" stop-color="#EAD4D1"/><stop offset="1" stop-color="#F0E9CB"/></linearGradient><linearGradient id="v" x1="335.026" y1="288.901" x2="357.879" y2="288.901" gradientUnits="userSpaceOnUse"><stop stop-color="#E5C5D5"/><stop offset=".42" stop-color="#EAD4D1"/><stop offset="1" stop-color="#F0E9CB"/></linearGradient><linearGradient id="w" x1="186.412" y1="366.31" x2="220.423" y2="366.31" gradientUnits="userSpaceOnUse"><stop stop-color="#E5C5D5"/><stop offset=".42" stop-color="#EAD4D1"/><stop offset="1" stop-color="#F0E9CB"/></linearGradient><linearGradient id="x" x1="324.707" y1="346.562" x2="352.768" y2="346.562" gradientUnits="userSpaceOnUse"><stop stop-color="#E5C5D5"/><stop offset=".42" stop-color="#EAD4D1"/><stop offset="1" stop-color="#F0E9CB"/></linearGradient><linearGradient id="y" x1="178.454" y1="270.712" x2="233.614" y2="270.712" gradientUnits="userSpaceOnUse"><stop stop-opacity="0"/><stop offset=".99"/></linearGradient></defs></svg>
