<svg fill="none" xmlns="http://www.w3.org/2000/svg" viewBox="0 0 406 306"><g clip-path="url(#a)"><path opacity=".18" d="M180.244.294c-1.87-.066-3.73-.109-5.579-.153-29.677-.62-59.964.381-87.989 10.158-28.025 9.776-53.853 29.59-64.63 57.213-5.579 14.344-6.895 29.917-8.972 45.164-3.882 28.59-10.635 56.93-10.994 85.771-.36 28.84 6.525 59.203 26.328 80.213 34.354 36.497 82.008 14.866 122.887 5.036a171.44 171.44 0 0 1 73.95-1.316c16.138 3.262 31.722 8.884 47.85 12.343 11.603 2.49 23.675 3.86 35.496 2.327 11.353-1.468 20.108-6.884 30.45-11.245 19.683-8.352 39.585-18.987 52.134-36.92a73.365 73.365 0 0 0 12.485-48.046c-3.861-44.761-45.675-63.553-67.262-98.734-12.571-20.445-21.141-43.63-37.312-61.356C270.072 8.994 223.592 1.675 180.244.294Z" fill="#400E3F"/><path d="M244.33 45.403v222.012a19.387 19.387 0 0 1-19.39 19.391h-96.091a19.389 19.389 0 0 1-19.39-19.391V45.403a19.395 19.395 0 0 1 11.967-17.924 19.395 19.395 0 0 1 7.423-1.477h96.091a19.388 19.388 0 0 1 19.39 19.4Z" fill="#400E3F"/><path d="M222.917 29.297h-92.056c-10.355 0-18.749 8.394-18.749 18.749V264.36c0 10.354 8.394 18.748 18.749 18.748h92.056c10.355 0 18.749-8.394 18.749-18.748V48.046c0-10.355-8.394-18.749-18.749-18.749Z" fill="#473F47"/><path d="M238.142 50.166V259.63a17.909 17.909 0 0 1-18.085 17.726h-86.249c-3.151.01-6.25-.799-8.994-2.349a17.634 17.634 0 0 1-9.113-15.377V50.166a17.921 17.921 0 0 1 18.107-17.726h14.572v2.577a8.577 8.577 0 0 0 5.438 7.798 9.046 9.046 0 0 0 3.317.63h40.063a8.697 8.697 0 0 0 8.755-8.57V32.44h14.137a18.235 18.235 0 0 1 12.495 4.915 17.503 17.503 0 0 1 5.557 12.811Z" fill="#fff"/><path opacity=".31" d="M182.604 174.913h-50.123c-.871 0-1.577.706-1.577 1.577v.011c0 .871.706 1.577 1.577 1.577h50.123c.871 0 1.577-.706 1.577-1.577v-.011c0-.871-.706-1.577-1.577-1.577ZM182.604 182.645h-50.123c-.871 0-1.577.706-1.577 1.577v.011c0 .871.706 1.577 1.577 1.577h50.123c.871 0 1.577-.706 1.577-1.577v-.011c0-.871-.706-1.577-1.577-1.577Z" fill="#400E3F"/><path opacity=".18" d="M244.331 146.431H109.448v8.472h134.883v-8.472Z" fill="#400E3F"/><path d="M89.275 125.062h164.277a11.017 11.017 0 0 1 0 22.033H89.275v-22.033Z" fill="#400E3F"/><path d="M221.928 125.062H89.275v22.022h132.653v-22.022Z" fill="#fff"/><path d="M241.623 140.146a5.317 5.317 0 0 0 5.317-5.318 5.317 5.317 0 1 0-10.635 0 5.318 5.318 0 0 0 5.318 5.318ZM246.484 143.474l-2.175-4.057" stroke="#fff" stroke-width="1.577" stroke-miterlimit="10"/><path d="M214.098 167.072h-80.649a2.546 2.546 0 0 0 0 5.09h80.649a2.546 2.546 0 0 0 0-5.09Z" fill="#400E3F"/><path opacity=".31" d="M182.604 201.524h-50.123c-.871 0-1.577.706-1.577 1.577v.011c0 .871.706 1.577 1.577 1.577h50.123c.871 0 1.577-.706 1.577-1.577v-.011c0-.871-.706-1.577-1.577-1.577ZM182.604 209.256h-50.123c-.871 0-1.577.706-1.577 1.577v.011c0 .871.706 1.577 1.577 1.577h50.123c.871 0 1.577-.706 1.577-1.577v-.011c0-.871-.706-1.577-1.577-1.577Z" fill="#400E3F"/><path d="M214.098 193.672h-80.649a2.546 2.546 0 0 0 0 5.09h80.649a2.545 2.545 0 0 0 0-5.09Z" fill="#400E3F"/><path opacity=".31" d="M182.604 228.124h-50.123c-.871 0-1.577.706-1.577 1.577v.011c0 .871.706 1.577 1.577 1.577h50.123c.871 0 1.577-.706 1.577-1.577v-.011c0-.871-.706-1.577-1.577-1.577ZM182.604 235.867h-50.123c-.871 0-1.577.706-1.577 1.577v.011c0 .871.706 1.577 1.577 1.577h50.123c.871 0 1.577-.706 1.577-1.577v-.011c0-.871-.706-1.577-1.577-1.577Z" fill="#400E3F"/><path d="M214.098 220.283h-80.649a2.546 2.546 0 0 0 0 5.09h80.649a2.545 2.545 0 0 0 0-5.09Z" fill="#400E3F"/><path d="M227.028 92.883a56.208 56.208 0 0 1 17.302 2.708v-7.95a64.228 64.228 0 1 0 0 123.714v-7.949a56.608 56.608 0 0 1-47.011-5.716 56.61 56.61 0 0 1-24.757-63.632 56.606 56.606 0 0 1 30.787-35.984 56.62 56.62 0 0 1 23.679-5.19Z" fill="url(#b)" opacity=".41"/><path d="M230.454 210.627a64.232 64.232 0 0 1-59.345-39.664 64.226 64.226 0 1 1 123.572-24.499 64.303 64.303 0 0 1-64.227 64.163Zm0-120.843a56.615 56.615 0 1 0 56.615 56.68 56.672 56.672 0 0 0-56.615-56.647v-.033Z" fill="#400E3F"/><path d="M317.443 241.566a6.525 6.525 0 0 1-4.655-1.947l-42.086-42.706a6.524 6.524 0 1 1 9.298-9.157l42.086 42.706a6.526 6.526 0 0 1-4.643 11.104Z" fill="#400E3F"/><path d="M337.605 255.138a7.686 7.686 0 0 1-5.453 2.219 7.672 7.672 0 0 1-5.422-2.295l-49.546-50.286a6.46 6.46 0 0 1-.751-.892 7.734 7.734 0 0 1-.359-.522 3.345 3.345 0 0 1 .305-3.85 28.58 28.58 0 0 1 3.143-3.197 26.815 26.815 0 0 1 4.197-3.056 3.388 3.388 0 0 1 3.948.337c.149.118.291.245.424.381l49.634 50.297a7.68 7.68 0 0 1-.12 10.864Z" fill="#473F47"/><path opacity=".18" d="M159.429 80.551v22.141a10.971 10.971 0 0 1-10.929 10.973h-39.041V69.578H148.5a10.972 10.972 0 0 1 10.929 10.973Z" fill="#400E3F"/><path d="M146.564 63.76H73.898c-6.06 0-10.973 4.913-10.973 10.973v22.141c0 6.06 4.913 10.973 10.973 10.973h72.666c6.06 0 10.973-4.913 10.973-10.973V74.733c0-6.06-4.913-10.973-10.973-10.973Z" fill="#fff"/><path d="M154.22 72.993a7.906 7.906 0 1 0 0-15.813 7.906 7.906 0 0 0 0 15.813ZM135.156 77.843H83.783a2.175 2.175 0 0 0-2.175 2.175v.01c0 1.202.974 2.176 2.175 2.176h51.373a2.175 2.175 0 0 0 2.175-2.175v-.011a2.175 2.175 0 0 0-2.175-2.175ZM135.156 89.447H83.783a2.175 2.175 0 0 0-2.175 2.175v.01c0 1.202.974 2.176 2.175 2.176h51.373a2.175 2.175 0 0 0 2.175-2.175v-.011a2.175 2.175 0 0 0-2.175-2.175ZM332.592 289.394a3.72 3.72 0 0 1 .326 4.165 3.453 3.453 0 0 1-3.763 1.512 1.677 1.677 0 0 1-.674-.348c-.403-.392-.468-1.088-.848-1.479a2.8 2.8 0 0 0-1.381-.609 9.862 9.862 0 0 1-2.513-1.36.99.99 0 0 1-.315-.282 1.008 1.008 0 0 1-.12-.468 3.495 3.495 0 0 1 .359-2.458c.229-.28.509-.512.827-.685a4.004 4.004 0 0 1 1.99-.598 5.14 5.14 0 0 1 1.598.37 12.225 12.225 0 0 1 4.002 2.001" fill="#400E3F"/><path d="m329.775 282.728 2.425 8.352s-.457 2.098-3.023 1.218c-2.567-.881-4.72-7.461-4.72-7.461l5.318-2.109Z" fill="#FCBDBA"/><path d="M304.175 300.193c-.66-.113-1.331-.16-2.001-.142a2.485 2.485 0 0 0-1.761.849 2.553 2.553 0 0 0 .478 3.262 5.904 5.904 0 0 0 3.208 1.327 4.898 4.898 0 0 0 2.175 0c.903-.261 1.762-1.012 2.665-.729.394.165.761.388 1.087.664a3.004 3.004 0 0 0 4.067-.512c.262-.39.45-.825.555-1.283.381-1.446.207-3.262-.99-4.1-1.413-1.011-2.512-.315-3.871.153a13.441 13.441 0 0 1-5.612.511Z" fill="#400E3F"/><path d="m305.35 292.091 3.545 8.7s2.033 1.229 3.48.685l1.424-.587-1.25-12.148-7.199 3.35ZM279 203.656c-.239-.316-.555-.664-.935-.609-.381.054-.446.206-.675.141a.698.698 0 0 1-.348-.272 10.939 10.939 0 0 0-1.794-1.533 3.144 3.144 0 0 0-1.392-.707 1.899 1.899 0 0 0-1.816 1.087 3.26 3.26 0 0 0-.228 2.175c.191.73.484 1.429.87 2.078.233.486.529.939.88 1.348 1.088 1.185 2.893 1.381 4.35 2.11.156.095.33.154.512.174a1 1 0 0 0 .728-.533 5.578 5.578 0 0 0 .99-2.719 4.753 4.753 0 0 0-1.142-2.74ZM293.137 194.227a.722.722 0 0 0-.522.054c-.09.073-.171.157-.239.251-.305.326-.805.337-1.218.522a2.114 2.114 0 0 0-1.088 1.337 6.224 6.224 0 0 0-.184 1.751c-.028.312.005.626.097.924a.81.81 0 0 0 .675.544c.247-.045.482-.145.685-.293a2.039 2.039 0 0 1 1.359-.218 7.482 7.482 0 0 1 1.697.794 1.748 1.748 0 0 0 1.783 0c.241-.217.43-.484.555-.783.489-1.088 1.087-2.295 0-3.176a7.39 7.39 0 0 0-3.6-1.707Z" fill="#FCBDBA"/><path d="M325.457 234.193a121.906 121.906 0 0 1-1.533 13.648c-.979 4.48-1.566 9.57-1.566 9.57l9.059 26.1s-5.514 3.664-9.059 2.24c-3.545-1.425-12.517-21.435-12.517-21.435l-3.415-22.761 9.037-10.375 9.994 3.013Z" fill="#473F47"/><path d="M300.456 232.376s-6.46 21.174-6.46 26.677 7.743 32.625 7.743 32.625 8.406 2.849 10.375 0l1.968-2.85-4.73-27.296s6.699-14.246 7.884-17.911a39.64 39.64 0 0 0 1.533-6.927l-18.313-4.318Z" fill="#473F47"/><path d="M303.175 174.38a14.288 14.288 0 0 0-1.425 4.818 4.802 4.802 0 0 0 1.925 4.35c.411.196.795.444 1.142.739 1.218 1.24-.174 3.491.522 5.101a2.405 2.405 0 0 0 3.001 1.087 3.994 3.994 0 0 0 2.175-2.643c.313-1.165.452-2.371.414-3.577l.119-7.189a9.204 9.204 0 0 0-.728-4.687 4.669 4.669 0 0 0-4.35-2.349c-1.675.359-2.186 2.947-2.795 4.35Z" fill="#FCBDBA"/><path d="M278.097 210.268s13.789 12.321 14.768 12.321c.979 0 7.101-7.743 7.101-7.743l.49 17.52a40.662 40.662 0 0 0 5.307 2.631c2.98 1.218 6.753 2.349 10.048 2.045 6.699-.609 9.646-2.849 9.646-2.849l-4.121-41.26s-7.808-5.622-10.473-4.763c-1.91.34-3.865.34-5.774 0-3.85-.501-7.787 4.763-7.787 4.763l-5.122 16.823-12.017-4.263a4.613 4.613 0 0 0-2.066 4.775Z" fill="#400E3F"/><path d="M304.339 166.583c1.446-1.316 4.719-1.86 6.318-2.034a8.698 8.698 0 0 1 6.906 2.023c2.61 2.479 2.881 6.525 2.849 10.244-.033 3.719-.087 7.711 2.088 10.538 1.87 2.414 4.926 3.415 7.308 5.274a10.315 10.315 0 0 1 4.132 7.417c.555 11.18-16.519 6.384-22.163 3.893a8.624 8.624 0 0 1-2.708-1.674 7.944 7.944 0 0 1-1.794-3.165 16.777 16.777 0 0 1 .631-12.18c.261-.565.543-1.272.184-1.773a1.862 1.862 0 0 0-.717-.5 4.077 4.077 0 0 1-2.512-3.621 7.012 7.012 0 0 1 1.5-3.11 3.573 3.573 0 0 0 .675-3.263c-.392-.881-1.327-1.316-2.023-1.957-1.218-1.088-2.099-4.013-1.088-5.579a2.78 2.78 0 0 1 .414-.533Z" fill="#F6A569"/></g><defs><linearGradient id="b" x1="149.37" y1="393.565" x2="332.613" y2="-340.539" gradientUnits="userSpaceOnUse"><stop offset=".01"/><stop offset=".08" stop-opacity=".69"/><stop offset=".21" stop-opacity=".32"/><stop offset="1" stop-opacity="0"/></linearGradient><clipPath id="a"><path fill="#fff" d="M0 0h406v306H0z"/></clipPath></defs></svg>
