<svg fill="none" xmlns="http://www.w3.org/2000/svg" viewBox="0 0 580 438"><g clip-path="url(#a)"><path opacity=".18" d="M462.353 47.994a93.364 93.364 0 0 0-18.778-23.519C425.892 8.796 401.934 1.678 378.352.282c-23.583-1.395-47.118 2.446-70.419 6.272-13.019 2.242-26.274 4.406-37.979 10.6-18.919 10.065-30.577 28.912-39.528 47.711-8.951 18.8-14.616 39.653-35.569 48.606-13.192 5.66-28.809 7.51-42.549 12.292-26.602 9.282-52.438 21.951-74.143 40.218-21.063 17.717-33.05 54.297-39.685 80.34-6.634 26.043-7.683 54.219.626 79.964 13.38 41.409 49.763 72.266 90.058 88.51 40.295 16.243 84.502 19.724 127.88 21.12 37.557 1.207 76.772 3.622 114.235.737 14.741-1.129 28.355-2.462 43.424-2.634a186.033 186.033 0 0 0 52.861-7.542c27.432-8.451 52.877-25.699 66.788-50.785 18.779-34.024 13.912-76.515 1.158-113.267-12.753-36.752-32.611-70.918-43.127-108.375-6.338-22.61-9.17-46.082-15.273-68.77a156.549 156.549 0 0 0-14.757-37.285Z" fill="#400E3F"/><path opacity=".18" d="M204.7 392.295c-5.164 2.242-10.61 7.369-8.544 12.622 22.659 8.263 47.368 8.263 71.482 8.153 58.448-.266 116.895-.517 175.264-1.05 4.867 0 9.953-.142 14.225-2.478 4.272-2.336 7.339-7.667 5.477-12.167-1.753-4.202-6.729-5.864-11.158-6.93a280.288 280.288 0 0 0-44.489-7.024c-12.174-.941-25.929-1.772-33.832-11.101-2.989-3.528-4.773-7.965-7.824-11.415-18.262-20.618-61.217-11.43-76.803 6.131-23.739 26.811-54.223 12.386-83.798 25.259Z" fill="#400E3F"/><path d="M261.833 232.084c-3.474 9.957-6.479 20.258-6.542 30.81-.062 10.552 3.13 21.481 10.563 28.944 10.876 10.975 27.808 12.183 43.19 12.794l20.343.816c7.997.313 16.072.627 23.911-.973 7.84-1.599 15.508-5.378 20.344-11.806a38.13 38.13 0 0 0 6.103-15.193c5.508-26.796-3.427-55.348-20.218-76.923a72.06 72.06 0 0 0-17.621-16.776c-11.298-7.197-44.927-17.985-55.975-5.927-5.023 5.472-8.199 16.557-11.376 23.268a314.744 314.744 0 0 0-12.722 30.966Z" fill="#fff"/><path d="M272.27 226.377c-2.817 8.059-5.242 16.385-5.289 24.93-.047 8.545 2.535 17.373 8.544 23.409 8.795 8.828 22.503 9.847 34.928 10.349l16.478.658c6.45.512 12.939.244 19.326-.799 6.337-1.302 12.518-4.344 16.399-9.549a30.478 30.478 0 0 0 4.945-12.277c4.46-21.684-2.77-44.764-16.352-62.215a58.093 58.093 0 0 0-14.256-13.578c-9.139-5.817-36.336-14.535-45.272-4.798-4.053 4.437-6.635 13.405-9.185 18.815a253.788 253.788 0 0 0-10.266 25.055Z" fill="url(#b)"/><path d="M291.94 369.309c-1.564 2.728-3.301 5.347-4.788 8.091-2.269 4.265-3.834 9.298-2.332 13.876.21.797.639 1.519 1.237 2.085a5.504 5.504 0 0 0 2.707.988 64.86 64.86 0 0 0 9.561.784c4.382 0 9.108-.517 12.362-3.465 6.526-5.943 6.088-20.571 2.348-27.752a4.967 4.967 0 0 0-4.538-3.136 32.574 32.574 0 0 0-8.983-.486c-3.364.376-4.256 1.191-5.43 4.406a31.925 31.925 0 0 1-2.144 4.609Z" fill="#400E3F"/><path d="M300.531 369.936c.786.141 1.581.22 2.379.236 2.441.109 5.211.094 6.948-1.647 1.737-1.74 1.768-4.296 1.768-6.663v-9.188c0-6.068-5.664-5.237-10.109-4.485a6.448 6.448 0 0 0-2.879 1.082c-1.565 1.239-1.737 3.497-1.8 5.472l-.313 9.674a6.595 6.595 0 0 0 .501 3.403 4.697 4.697 0 0 0 3.505 2.116Z" fill="#FDBAAC"/><path d="M349.199 369.309c1.564 2.728 3.301 5.347 4.694 8.091 2.285 4.264 3.85 9.297 2.332 13.876a4.423 4.423 0 0 1-1.237 2.085 5.394 5.394 0 0 1-2.707.988 64.928 64.928 0 0 1-9.545.784c-4.382 0-9.123-.518-12.363-3.465-6.541-5.943-6.103-20.571-2.363-27.753a6.173 6.173 0 0 1 1.284-1.818 6.33 6.33 0 0 1 3.254-1.286 32.72 32.72 0 0 1 8.998-.486c3.349.376 4.241 1.192 5.415 4.406a30.532 30.532 0 0 0 2.238 4.578Z" fill="#400E3F"/><path d="M340.608 369.936c-.786.14-1.581.219-2.379.236-2.457.109-5.211.094-6.948-1.647-1.737-1.74-1.784-4.296-1.784-6.663v-9.188c0-6.068 5.68-5.237 10.109-4.485a6.43 6.43 0 0 1 2.895 1.082c1.565 1.239 1.721 3.497 1.784 5.472l.313 9.674a6.59 6.59 0 0 1-.485 3.403 4.697 4.697 0 0 1-3.505 2.116Z" fill="#FDBAAC"/><path d="M336.288 131.894s19.092 8.279 21.33 10.16c2.003 1.678-3.428 116.513-3.85 122.126-.423 5.613-30.969 6.507-44.176 3.982a143.252 143.252 0 0 1-25.758-7.839s-4.178-118.614-1.564-120.731c2.613-2.116 27.854-9.94 27.854-9.94l26.164 2.242Z" fill="#400E3F"/><path d="M273.491 273.525c-1.424 5.236-2.285 11.132.438 15.804a15.213 15.213 0 0 0 7.715 6.178 38.664 38.664 0 0 0 9.811 2.085 183.683 183.683 0 0 0 61.39-3.339 14.617 14.617 0 0 0 7.589-3.434 13.11 13.11 0 0 0 2.942-7.683 46.53 46.53 0 0 0-5.868-28.74 4.164 4.164 0 0 0-1.565-1.725 4.21 4.21 0 0 0-2.066-.345l-52.094.173a90.989 90.989 0 0 1-11.329-.424c-2.926-.345-6.26-2.21-8.357.298-4.459 5.237-6.854 14.629-8.606 21.152Z" fill="#473F47"/><path d="M273.491 273.525c-1.424 5.236-2.285 11.132.438 15.804a15.213 15.213 0 0 0 7.715 6.178 38.664 38.664 0 0 0 9.811 2.085 183.683 183.683 0 0 0 61.39-3.339 14.617 14.617 0 0 0 7.589-3.434 13.11 13.11 0 0 0 2.942-7.683 46.53 46.53 0 0 0-5.868-28.74 4.164 4.164 0 0 0-1.565-1.725 4.21 4.21 0 0 0-2.066-.345l-52.094.173a90.989 90.989 0 0 1-11.329-.424c-2.926-.345-6.26-2.21-8.357.298-4.459 5.237-6.854 14.629-8.606 21.152Z" fill="url(#c)"/><path d="m335.569 356.092 3.051.297c9.233.926 12.957-6.961 13.88-16.212.219-1.928.673-3.873 1.002-5.786l6.087-35.529 2.817-16.463c.282-1.662.579-3.308.845-4.97.814-4.829-.642-9.486-1.565-14.331-.548-2.932-1.252-6.084-3.505-8.028-2.254-1.944-5.368-2.117-8.278-2.258-7.731-.345-15.571-.705-23.098 1.098a1.97 1.97 0 0 0-1.205.627 2.03 2.03 0 0 0-.203 1.301c.548 7.37 1.721 14.676 1.565 22.045l-1.33 59.205c-.939 9.204.704 18.079 9.937 19.004ZM306.697 358.444l-3.13.297c-9.217.925-12.957-6.961-13.88-16.212l-9.937-58.013c-.798-4.61-1.471-9.047-1.815-13.735-.382-3.17-.277-6.38.313-9.518a10.514 10.514 0 0 1 1.922-4.317 10.485 10.485 0 0 1 3.618-3.036c1.5-.572 3.089-.879 4.694-.909a70.242 70.242 0 0 1 15.821.752c1.878.16 3.684.802 5.242 1.866a11.408 11.408 0 0 1 3.13 5.503c1.565 4.516 3.583 9.502 3.13 14.331a73.527 73.527 0 0 0-.533 9.298l.454 20.54.767 33.6a3.331 3.331 0 0 0 0 .565c1.017 9.141-.626 18.015-9.796 18.988ZM467.283 237.368v3.387a4.945 4.945 0 0 1-3.04 4.577 4.923 4.923 0 0 1-1.89.378H173.496a4.927 4.927 0 0 1-4.558-3.06 4.945 4.945 0 0 1-.371-1.895v-3.387a4.94 4.94 0 0 1 1.444-3.492 4.924 4.924 0 0 1 3.485-1.447h288.857c1.308 0 2.562.521 3.486 1.447a4.944 4.944 0 0 1 1.444 3.492Z" fill="#473F47"/><path d="M377.429 179.935s12.393 25.871 11.063 32.926c-.923 4.971-10.422 9.33-14.178 11.587-3.755 2.258-7.526 5.034-11.423 6.57-3.896 1.537-8.341.941-12.3.815l-20.343-.658c-.97 0-2.269-.361-2.269-1.349 0-.58.501-1.034.986-1.364a10.94 10.94 0 0 1 5.133-1.912 52.372 52.372 0 0 0 12.925-2.478l23.411-16.149-5.649-10.49 12.644-17.498Z" fill="#FDBAAC"/><path d="M283.381 139.028c-4.069 1.772-6.854 4.218-7.825 8.404-1.564 6.475-4.772 11.9-7.824 17.78a85.669 85.669 0 0 0-4.694 11.054 6.944 6.944 0 0 0-.533 3.669 7.333 7.333 0 0 0 1.346 2.587 316.788 316.788 0 0 0 11.299 14.848 42.999 42.999 0 0 0 6.744-3.904c.829-1.317.501-4.484.626-6.021.23-3.135.438-6.308.626-9.517l.235-38.9Z" fill="#400E3F"/><path d="M329.325 117.5c.152.745.251 1.5.297 2.258.204 3.042-.109 6.162.798 9.063a14.025 14.025 0 0 0 1.409 2.979c2.175 3.449-.517 9.078-2.426 12.214-2.425 3.967-6.259 7.84-11.126 8.31-6.119.549-8.779-6.272-9.906-11.117-.657-2.79-1.22-4.797-.172-7.557 1.049-2.759 2.676-5.394 3.506-8.31a58.287 58.287 0 0 0 1.189-10.207 6.286 6.286 0 0 1 .704-2.619 4.697 4.697 0 0 1 3.13-2.007 12.953 12.953 0 0 1 3.74-.109 11.639 11.639 0 0 1 5.524 1.379 8.598 8.598 0 0 1 3.333 5.723Z" fill="#FDBAAC"/><path d="M312.346 122.659s2.488 15.601 9.108 12.794c6.619-2.807 8.231-11.759 8.231-11.759l-17.339-1.035Z" fill="#DEA095"/><path d="M332.016 131.69s-5.852 18.063-12.018 20.477c0 0-1.643 1.082 3.208 3.434 4.851 2.352 16.494-12.653 13.74-22.625a7.658 7.658 0 0 0-1.844-3.407 7.622 7.622 0 0 0-3.273-2.065l.187 4.186ZM308.841 129.934s-.892 12.982 5.054 21.339c0 0-1.893 3.481-3.74 3.654-1.846.172-7.433-10.49-6.259-18.957.548-4.876 3.896-7.259 4.945-6.036Z" fill="#fff"/><path d="M303.692 87.85s.313 24.131 2.739 30.419c2.425 6.287 8.45 11.336 13.959 10.834 5.508-.502 13.395-5.864 16.337-14.488 2.942-8.623 2.942-29.085 1.768-31.766-1.174-2.681-7.496-10.897-22.08-8.231-10.031 1.834-13.051 9.548-12.723 13.233Z" fill="#FDBAAC"/><path d="M377.898 167.423c2.034 2.885 3.474 4.97 3.818 5.456a6.61 6.61 0 0 1 1.174 2.227 5.45 5.45 0 0 1-1.236 4.171c-2.175 3.135-5.383 5.268-8.185 7.839a65.265 65.265 0 0 0-8.434 10.27 29.71 29.71 0 0 1-5.164-4.704 10.494 10.494 0 0 1-3.331-4.298 10.526 10.526 0 0 1-.738-5.391l-.281-20.227-.157-10.113c0-1.74-2.238-9.611-1.158-10.975 2.566-3.215 16.65 15.898 23.692 25.745Z" fill="#400E3F"/><path d="M300.641 96.788a.937.937 0 0 0-.548 0c-.173.112-.314.27-.407.455a5.534 5.534 0 0 0-.61 3.731 12.47 12.47 0 0 0 1.189 3.011 8.746 8.746 0 0 0 2.755 3.92c.253.182.565.266.876.235.226-.04.434-.149.595-.314a5.056 5.056 0 0 0 1.189-3.449 7.254 7.254 0 0 0-.908-5.112 5.64 5.64 0 0 0-4.131-2.477ZM341.687 96.396c.181-.04.367-.04.548 0 .17.116.31.272.407.455a5.67 5.67 0 0 1 .61 3.747 14.508 14.508 0 0 1-1.189 3.01 8.718 8.718 0 0 1-2.754 3.905 1.313 1.313 0 0 1-.892.25 1.231 1.231 0 0 1-.579-.313 5.088 5.088 0 0 1-1.19-3.45 7.142 7.142 0 0 1 .908-5.111 5.628 5.628 0 0 1 4.131-2.493Z" fill="#FDBAAC"/><path d="M299.561 85.624c-.5-3.135-.61-6.757 1.565-9.062.454-.486 1.002-.878 1.471-1.349.47-.47 1.189-1.426 1.8-2.148a19.11 19.11 0 0 1 14.302-6.162 46.865 46.865 0 0 1 15.649 3.027c2.817.92 5.613 1.918 8.388 2.994 1.078.34 2.074.901 2.926 1.647a4.862 4.862 0 0 1 .923 5.017c-.469 1.333-1.439 2.462-1.831 3.81a12.55 12.55 0 0 0-.281 3.246 19.022 19.022 0 0 1-2.222 8.294 8.338 8.338 0 0 1-3.584 3.826 35.317 35.317 0 0 0-1.565-11.572 21.555 21.555 0 0 1-11.595 4.704 31.8 31.8 0 0 1-12.519-1.427 5.545 5.545 0 0 0-3.13-.376c-1.017.282-1.831 1.568-1.252 2.415a1.78 1.78 0 0 0-2.472.564 5.312 5.312 0 0 0-.642 2.744l-.266 5.989c-3.583-4.217-4.788-10.709-5.665-16.18Z" fill="#FC682D"/><path d="M262.474 179.935a207.063 207.063 0 0 0-7.026 16.369 74.207 74.207 0 0 0-3.724 11.885c-.329 1.568-1.096 3.716-.517 5.3.892 2.43 4.57 4.327 6.635 5.581a166.507 166.507 0 0 0 20.515 10.709 34.61 34.61 0 0 0 8.638 2.823c2.347.287 4.715.356 7.074.204l13.583-.471c1.236 0 2.848-.423 2.957-1.662 0-.862-.735-1.568-1.471-2.022a28.93 28.93 0 0 0-7.824-3.466c-2.707-.737-6.056-.235-8.607-1.144-2.879-1.019-6.087-4.249-8.638-6.021l-14.6-10.097 5.649-10.49-12.644-17.498Z" fill="#FDBAAC"/><path d="M356.929 226.91h-76.13l-6.682-51.396 88.211 1.223-5.399 50.173Z" fill="#400E3F"/><path d="m193.088 232.429-2.19 13.281-25.289 156.008a4.473 4.473 0 0 1-3.865 3.967c-1.784 0-2.942-1.787-2.582-3.967L184.45 245.71l2.144-13.281h6.494ZM445.077 232.429l2.144 13.281 25.351 156.008a4.473 4.473 0 0 0 3.865 3.967c1.784 0 2.942-1.787 2.582-3.967L453.731 245.71l-2.144-13.281h-6.51Z" fill="#473F47"/><path d="M356.929 226.895h-76.506v5.597h76.506v-5.597Z" fill="#400E3F"/><path d="M356.929 226.895h-76.506v5.597h76.506v-5.597Z" fill="url(#d)"/><path d="M221.209 232.429h-37.791a20.067 20.067 0 0 1 7.317-9.718 19.999 19.999 0 0 1 23.156 0 20.063 20.063 0 0 1 7.318 9.718Z" fill="#400E3F"/><path d="M181.688 160.525a2.863 2.863 0 0 0-3.635-1.79 2.872 2.872 0 0 0-1.786 3.642l20.335 59.746a2.861 2.861 0 0 0 3.634 1.79 2.87 2.87 0 0 0 1.786-3.642l-20.334-59.746Z" fill="#400E3F"/><path d="M178.147 158.651a2.87 2.87 0 0 0 1.716 5.475l60.106-18.919a2.871 2.871 0 0 0 1.873-3.598 2.863 2.863 0 0 0-3.59-1.877l-60.105 18.919Z" fill="#400E3F"/><path d="M221.209 232.429h-37.791a20.067 20.067 0 0 1 7.317-9.718 19.999 19.999 0 0 1 23.156 0 20.063 20.063 0 0 1 7.318 9.718Z" fill="url(#e)"/><path d="M181.688 160.525a2.863 2.863 0 0 0-3.635-1.79 2.872 2.872 0 0 0-1.786 3.642l20.335 59.746a2.861 2.861 0 0 0 3.634 1.79 2.87 2.87 0 0 0 1.786-3.642l-20.334-59.746Z" fill="url(#f)"/><path d="M178.147 158.651a2.87 2.87 0 0 0 1.716 5.475l60.106-18.919a2.871 2.871 0 0 0 1.873-3.598 2.863 2.863 0 0 0-3.59-1.877l-60.105 18.919Z" fill="url(#g)"/><path d="M263.726 147.369c-4.851 6.962-10.594 11.415-13.051 10.207a2.069 2.069 0 0 1-.313-.203l-.328-.204c-7.168-5.033-13.787-18.345-8.764-25.542 5.024-7.196 19.78-5.55 26.947-.517l.313.235c.106.064.205.138.297.22 1.972 1.897-.234 8.827-5.101 15.804Z" fill="#400E3F"/><path d="M263.726 147.369c-4.851 6.962-10.594 11.415-13.051 10.207l-.219-.125a.205.205 0 0 1-.094-.078c-2.175-1.741 0-8.781 4.976-15.883 4.977-7.103 10.814-11.587 13.192-10.145h.11l.187.157c1.972 1.96-.234 8.89-5.101 15.867Z" fill="#400E3F"/><path d="M263.726 147.369c-4.851 6.962-10.594 11.415-13.051 10.207l-.219-.125a.205.205 0 0 1-.094-.078c-2.175-1.741 0-8.781 4.976-15.883 4.977-7.103 10.814-11.587 13.192-10.145h.11l.187.157c1.972 1.96-.234 8.89-5.101 15.867Z" fill="#fff"/><path d="M425.172 179.919h-9.17a3.791 3.791 0 0 0-3.787 3.795v45.344a3.791 3.791 0 0 0 3.787 3.795h9.17a3.79 3.79 0 0 0 3.787-3.795v-45.344a3.79 3.79 0 0 0-3.787-3.795Z" fill="#400E3F"/><path d="m441.425 179.669-9.149.631a3.792 3.792 0 0 0-3.517 4.046l3.109 45.238a3.79 3.79 0 0 0 4.038 3.524l9.149-.631a3.793 3.793 0 0 0 3.518-4.046l-3.11-45.237a3.79 3.79 0 0 0-4.038-3.525Z" fill="#400E3F"/><path d="M357.007 226.91h-76.13l-6.682-51.396 88.211 1.223-5.399 50.173Z" fill="url(#h)"/><path d="m277.528 172.974-3.333 2.54 88.211 1.223-3.036-2.979-81.842-.784Z" fill="url(#i)"/><path d="M438.223 88.384a24.823 24.823 0 0 1-6.854 15.225 27.551 27.551 0 0 0-7.339 12.825c-.344 1.49-.532 3.026-.798 4.704h-21.908c-.157-1.113-.266-2.226-.485-3.308a25.482 25.482 0 0 0-6.432-12.544 31.228 31.228 0 0 1-6.713-10.317 26.356 26.356 0 0 1-1.441-11.326 26.356 26.356 0 0 1 3.48-10.872 26.313 26.313 0 0 1 7.747-8.373 26.25 26.25 0 0 1 10.557-4.3c.704-.11 1.393-.188 2.066-.25a26.072 26.072 0 0 1 11.222 1.533 26.11 26.11 0 0 1 9.519 6.149 26.204 26.204 0 0 1 7.426 20.87l-.047-.016Z" fill="#fff"/><path d="M433.936 88.384a24.735 24.735 0 0 1-6.839 15.224 27.582 27.582 0 0 0-7.355 12.826c-.344 1.49-.516 3.026-.798 4.704H401.34c-.157-1.113-.266-2.227-.486-3.308a25.472 25.472 0 0 0-6.431-12.544 31.213 31.213 0 0 1-6.713-10.317 26.373 26.373 0 0 1 2.039-22.198 26.302 26.302 0 0 1 7.747-8.373 26.245 26.245 0 0 1 10.557-4.3c.704-.11 1.393-.188 2.065-.25a26.056 26.056 0 0 1 9.87 2.842A26.112 26.112 0 0 1 428 69.128a26.158 26.158 0 0 1 4.913 9.036 26.22 26.22 0 0 1 1.054 10.236l-.031-.016Z" fill="url(#j)"/><path d="M423.733 121.091h-21.72a2.851 2.851 0 0 0-2.849 2.853v.016a2.852 2.852 0 0 0 2.849 2.854h21.72a2.851 2.851 0 0 0 2.848-2.854v-.016a2.85 2.85 0 0 0-2.848-2.853Z" fill="#400E3F"/><path d="M422.074 125.889H402.67a2.553 2.553 0 0 0-2.551 2.555A2.553 2.553 0 0 0 402.67 131h19.404a2.553 2.553 0 0 0 2.551-2.556 2.553 2.553 0 0 0-2.551-2.555Z" fill="#400E3F"/><path d="M420.806 130.075h-16.853c-1.219 0-2.207.99-2.207 2.211v.016c0 1.221.988 2.21 2.207 2.21h16.853a2.208 2.208 0 0 0 2.207-2.21v-.016a2.209 2.209 0 0 0-2.207-2.211Z" fill="#400E3F"/><path d="M423.733 121.091h-21.72a2.851 2.851 0 0 0-2.849 2.853v.016a2.852 2.852 0 0 0 2.849 2.854h21.72a2.851 2.851 0 0 0 2.848-2.854v-.016a2.85 2.85 0 0 0-2.848-2.853Z" fill="url(#k)"/><path d="M422.074 125.889H402.67a2.553 2.553 0 0 0-2.551 2.555A2.553 2.553 0 0 0 402.67 131h19.404a2.553 2.553 0 0 0 2.551-2.556 2.553 2.553 0 0 0-2.551-2.555Z" fill="url(#l)"/><path d="M420.806 130.075h-16.853c-1.219 0-2.207.99-2.207 2.211v.016c0 1.221.988 2.21 2.207 2.21h16.853a2.208 2.208 0 0 0 2.207-2.21v-.016a2.209 2.209 0 0 0-2.207-2.211Z" fill="url(#m)"/><path d="M406.848 121.012a67.852 67.852 0 0 0-1.565-11.916 88.571 88.571 0 0 1-1.455-9.846c-.345-5.002.641-8.499 3.02-10.694a2.469 2.469 0 0 1 1.565-.768 2.436 2.436 0 0 1 1.737.706c.078-.094.141-.189.219-.267a3.317 3.317 0 0 1 1.565-1.097 2.342 2.342 0 0 1 1.877.25c.404.237.751.558 1.018.941a2.932 2.932 0 0 1 2.237-.392c1.424.36 2.41 1.71 2.833 3.889 1.017 5.237-.094 10.52-1.174 15.679a45.132 45.132 0 0 0-1.455 13.202l-1.565.141a46.142 46.142 0 0 1 1.487-13.657c1.095-5.189 2.128-10.081 1.173-15.005-.172-.878-.61-2.399-1.674-2.665a1.47 1.47 0 0 0-1.096.235c.11.275.199.558.266.847.373 1.54.557 3.12.548 4.704a1.763 1.763 0 0 1-.516 1.348 1.222 1.222 0 0 1-1.205.25 2.38 2.38 0 0 1-1.377-1.708 8.657 8.657 0 0 1-.266-4.532c.131-.457.343-.887.626-1.27a2.015 2.015 0 0 0-.658-.658.781.781 0 0 0-.641-.094c-.321.12-.599.332-.798.611-.125.141-.219.282-.329.424a8.436 8.436 0 0 1 1.565 6.099c-.157 1.082-.798 2.117-1.925 2.117a2.015 2.015 0 0 1-1.706-1.396 7.852 7.852 0 0 1 .11-6.648h-.078c-.376-.36-.611-.439-.704-.423a1.235 1.235 0 0 0-.564.345c-1.987 1.834-2.832 5.017-2.519 9.407a90.922 90.922 0 0 0 1.424 9.659 68.91 68.91 0 0 1 1.565 12.198l-1.565-.016Zm3.568-29.79a6.28 6.28 0 0 0 .203 4.547c.076.186.194.353.344.486.183-.21.293-.474.313-.753a6.922 6.922 0 0 0-.876-4.217l.016-.063Zm4.021.157a8.421 8.421 0 0 0 .36 3.37 17.948 17.948 0 0 0-.375-3.308l.015-.062Z" fill="#400E3F"/></g><defs><linearGradient id="b" x1="321.015" y1="317.96" x2="310.396" y2="86.191" gradientUnits="userSpaceOnUse"><stop offset=".01"/><stop offset=".08" stop-opacity=".69"/><stop offset=".21" stop-opacity=".32"/><stop offset="1" stop-opacity="0"/></linearGradient><linearGradient id="c" x1="319.31" y1="305.949" x2="312.822" y2="181.159" gradientUnits="userSpaceOnUse"><stop offset=".01"/><stop offset=".08" stop-opacity=".69"/><stop offset=".21" stop-opacity=".32"/><stop offset="1" stop-opacity="0"/></linearGradient><linearGradient id="d" x1="319.044" y1="212.736" x2="317.944" y2="262.627" gradientUnits="userSpaceOnUse"><stop offset=".01"/><stop offset=".08" stop-opacity=".69"/><stop offset=".21" stop-opacity=".32"/><stop offset="1" stop-opacity="0"/></linearGradient><linearGradient id="e" x1="183.418" y1="225.719" x2="221.209" y2="225.719" gradientUnits="userSpaceOnUse"><stop offset=".01"/><stop offset=".08" stop-opacity=".69"/><stop offset=".21" stop-opacity=".32"/><stop offset="1" stop-opacity="0"/></linearGradient><linearGradient id="f" x1="176.125" y1="191.327" x2="202.196" y2="191.327" gradientUnits="userSpaceOnUse"><stop offset=".01"/><stop offset=".08" stop-opacity=".69"/><stop offset=".21" stop-opacity=".32"/><stop offset="1" stop-opacity="0"/></linearGradient><linearGradient id="g" x1="176.144" y1="151.908" x2="241.977" y2="151.908" gradientUnits="userSpaceOnUse"><stop offset=".01"/><stop offset=".08" stop-opacity=".69"/><stop offset=".21" stop-opacity=".32"/><stop offset="1" stop-opacity="0"/></linearGradient><linearGradient id="h" x1="306.947" y1="159.881" x2="376.811" y2="358.452" gradientUnits="userSpaceOnUse"><stop offset=".01"/><stop offset=".08" stop-opacity=".69"/><stop offset=".21" stop-opacity=".32"/><stop offset="1" stop-opacity="0"/></linearGradient><linearGradient id="i" x1="319.216" y1="161.857" x2="314.786" y2="231.158" gradientUnits="userSpaceOnUse"><stop offset=".01"/><stop offset=".08" stop-opacity=".69"/><stop offset=".21" stop-opacity=".32"/><stop offset="1" stop-opacity="0"/></linearGradient><linearGradient id="j" x1="486.045" y1="141.301" x2="368.418" y2="64.386" gradientUnits="userSpaceOnUse"><stop offset=".01"/><stop offset=".13" stop-opacity=".69"/><stop offset=".25" stop-opacity=".32"/><stop offset="1" stop-opacity="0"/></linearGradient><linearGradient id="k" x1="412.904" y1="112.969" x2="412.825" y2="134.544" gradientUnits="userSpaceOnUse"><stop offset=".01"/><stop offset=".13" stop-opacity=".69"/><stop offset=".25" stop-opacity=".32"/><stop offset="1" stop-opacity="0"/></linearGradient><linearGradient id="l" x1="413.013" y1="118.237" x2="411.647" y2="140.188" gradientUnits="userSpaceOnUse"><stop offset=".01"/><stop offset=".13" stop-opacity=".69"/><stop offset=".25" stop-opacity=".32"/><stop offset="1" stop-opacity="0"/></linearGradient><linearGradient id="m" x1="412.716" y1="124.195" x2="411.978" y2="141.787" gradientUnits="userSpaceOnUse"><stop offset=".01"/><stop offset=".13" stop-opacity=".69"/><stop offset=".25" stop-opacity=".32"/><stop offset="1" stop-opacity="0"/></linearGradient><clipPath id="a"><path fill="#fff" d="M0 0h580v438H0z"/></clipPath></defs></svg>
